PathFileType	4	(X/Y/Z)	C:/Users/opensim2020/Desktop/walking_exp_matlab/subject03_walking06_straight_01.trc	
DataRate	CameraRate	NumFrames	NumMarkers	Units	OrigDataRate	OrigDataStartFrame	OrigNumFrames	
100.00	100.00	7	44	mm	100.00	714	362	
Frame#	Time	LFHD			RFHD			LBHD			RBHD			C7			T10			CLAV			STRN			RBAK			LSHO			LUPA			LELB			LFRM			LWRA			LWRB			LFIN			RSHO			RUPA			RELB			RFRM			RWRA			RWRB			RFIN			LASI			RASI			LPSI			RPSI			LTHI			LKNE			LTIB			LANK			LHEE			LTOE			RTHI			RKNE			RTIB			RANK			RHEE			RTOE			*39			*40			*41			*42			*43			
		X1	Y1	Z1	X2	Y2	Z2	X3	Y3	Z3	X4	Y4	Z4	X5	Y5	Z5	X6	Y6	Z6	X7	Y7	Z7	X8	Y8	Z8	X9	Y9	Z9	X10	Y10	Z10	X11	Y11	Z11	X12	Y12	Z12	X13	Y13	Z13	X14	Y14	Z14	X15	Y15	Z15	X16	Y16	Z16	X17	Y17	Z17	X18	Y18	Z18	X19	Y19	Z19	X20	Y20	Z20	X21	Y21	Z21	X22	Y22	Z22	X23	Y23	Z23	X24	Y24	Z24	X25	Y25	Z25	X26	Y26	Z26	X27	Y27	Z27	X28	Y28	Z28	X29	Y29	Z29	X30	Y30	Z30	X31	Y31	Z31	X32	Y32	Z32	X33	Y33	Z33	X34	Y34	Z34	X35	Y35	Z35	X36	Y36	Z36	X37	Y37	Z37	X38	Y38	Z38	X39	Y39	Z39	X40	Y40	Z40	X41	Y41	Z41	X42	Y42	Z42	X43	Y43	Z43	X44	Y44	Z44	

272	2.710	1400.61194	733.65106	1608.82642	1533.88684	731.53638	1613.23413	1403.01428	602.35602	1573.83679	1533.87610	605.04840	1577.60486	1455.17773	566.46686	1411.24207	1452.13013	535.73035	1095.39099	1459.73145	689.36566	1336.48486	1452.35571	734.96014	1172.75317	1544.95398	510.71448	1232.03857	1303.86926	651.15552	1376.95044	1225.66663	683.17316	1188.92163	1212.91064	727.32001	1074.73730	1225.40515	807.10046	974.26453	1268.35156	876.28064	883.89893	1216.79907	859.37860	873.03137	1233.47644	916.27588	814.79730	1617.73523	632.89478	1356.47180	1691.40588	628.37323	1134.46375	1707.25537	642.97113	1023.09497	1712.44751	660.83630	887.36896	1680.45117	694.79236	792.07349	1722.03650	660.01367	786.88824	1713.76770	683.56451	715.50244	1332.91431	705.23688	935.61371	1571.03223	709.49329	936.20795	1386.48608	544.76758	955.26343	1535.55457	546.04932	957.06134	1311.97131	628.26239	633.54248	1358.82568	605.87012	458.89487	1363.82886	527.79932	277.29266	1413.22473	476.30206	74.85623	1449.76794	432.01425	43.30019	1433.70032	625.01654	35.21127	1620.37134	736.40479	648.41339	1588.45996	820.96667	489.98834	1594.17419	802.34894	300.26028	1551.64026	803.54852	82.60159	1498.41699	763.27911	47.34518	1534.13965	943.48645	53.70705	1454.16223	654.37885	1675.44006												 
273	2.720	1401.44299	743.46625	1607.56262	1534.72046	741.07233	1611.80249	1403.44421	612.05243	1572.83997	1534.34937	614.52069	1576.40771	1455.74207	575.95917	1410.17273	1453.14001	544.61292	1094.34790	1460.00903	698.57385	1335.12769	1452.21875	743.91376	1171.32654	1545.54285	520.18994	1230.93848	1304.36182	660.17841	1375.78589	1225.96033	692.75421	1188.12598	1213.67969	737.95337	1074.43640	1226.42529	819.35956	975.53839	1270.09387	890.08350	886.80560	1218.60352	873.51886	875.25281	1235.82056	931.59399	818.38495	1618.16187	642.44745	1355.06750	1691.77600	636.75348	1133.00415	1707.78076	650.81726	1021.64209	1713.05188	667.51678	885.70020	1681.37256	700.99188	790.15582	1722.95947	666.01971	785.33795	1714.52930	688.73639	713.50299	1332.60510	713.27142	934.42841	1570.97266	718.88568	934.64459	1387.61511	553.46149	954.09607	1536.46912	555.12061	955.77008	1311.81165	634.53827	632.84985	1358.53418	611.05432	458.32803	1363.81958	530.68787	277.35251	1413.50513	476.92313	75.48841	1450.14746	432.17700	44.65959	1433.36230	625.25549	35.24626	1620.76111	742.49146	645.95386	1587.67419	827.71765	487.52448	1593.05054	816.96906	297.99182	1550.16235	829.73285	80.53881	1496.24133	791.50433	44.25029	1533.08069	971.12128	56.63729	1454.05627	664.04993	1674.16907												 
274	2.730	1402.25757	753.22375	1606.39160	1535.55750	750.60303	1610.44299	1403.94348	621.75867	1571.81116	1534.89709	623.98651	1575.22778	1456.40918	585.38867	1409.19812	1454.02734	553.55011	1093.26392	1460.29932	707.87085	1333.79614	1452.07703	752.94403	1169.91138	1546.22559	529.62616	1229.84399	1304.86267	669.22357	1374.60083	1226.44141	702.52032	1187.45862	1214.19067	748.60901	1074.22473	1227.51831	831.26508	976.64093	1271.92981	903.38501	889.50800	1220.40234	887.24207	877.33734	1238.17200	946.38245	821.77679	1618.60217	652.15778	1353.66821	1692.19019	645.48596	1131.74561	1708.35254	658.94336	1020.21161	1713.79443	674.71448	884.17749	1682.29858	707.40656	788.27307	1723.74854	672.26678	783.77899	1715.52917	694.43115	711.81744	1332.69397	721.42883	933.34625	1570.94141	728.29163	933.11017	1388.55334	561.88696	952.91791	1537.31580	564.48419	954.41742	1311.68225	640.95276	632.11456	1358.22937	616.19409	457.55609	1364.06335	533.56201	277.48404	1414.07703	477.18857	76.29311	1450.88196	432.36069	45.95973	1433.26550	625.31665	35.17406	1621.53064	748.71460	643.56775	1586.71252	834.24078	484.92081	1591.98047	830.49133	295.93018	1548.81531	854.13184	79.29373	1494.30859	817.84381	41.98892	1532.35071	996.72656	59.96542	1454.54504	673.81726	1672.86145												 
275	2.740	1403.06702	762.93335	1605.22974	1536.41968	760.18311	1609.21521	1404.51697	631.44458	1570.67554	1535.50525	633.58508	1573.97888	1457.07385	594.80157	1408.01257	1455.01685	562.43640	1092.19763	1460.64807	717.30304	1332.50903	1451.99072	762.08459	1168.56555	1547.00903	539.10022	1228.70068	1305.44214	678.31061	1373.44458	1226.90930	712.17047	1186.67395	1214.59534	758.86810	1073.71423	1228.66675	842.94366	977.63904	1273.74512	916.19702	891.86151	1222.16528	900.50171	879.22064	1240.42175	960.60852	824.90472	1619.08557	662.03894	1352.30725	1692.55225	654.34277	1130.28772	1708.70886	667.22437	1018.71814	1714.46985	682.02374	882.64575	1683.20166	714.12860	786.47241	1724.52148	678.74390	782.28094	1716.46179	700.37592	710.12000	1332.47937	729.75525	932.43127	1570.90039	737.75922	931.62695	1389.77014	570.72076	951.57904	1538.17310	573.87994	953.06763	1311.44092	647.31750	631.51978	1358.06006	621.42474	457.02002	1364.34436	536.60071	277.82333	1414.37366	477.79306	77.42571	1451.30005	432.59735	47.33440	1433.33215	625.41455	35.09856	1622.59351	755.24847	641.38605	1585.84265	840.47900	482.28799	1590.80994	842.72095	294.05978	1547.68433	876.53723	78.57646	1492.78088	842.16321	40.58286	1532.02539	1020.19183	63.40648	1455.10083	683.56238	1671.41284												 
276	2.750	1403.89355	772.68860	1604.24316	1537.26697	769.79657	1608.07300	1405.16687	641.15393	1569.57129	1536.19934	643.20068	1572.81335	1457.81934	604.42676	1406.95801	1455.94629	571.50714	1091.31201	1460.98645	726.82111	1331.29199	1451.92322	771.24249	1167.24524	1547.74512	548.90369	1227.69653	1306.07043	687.56287	1372.35571	1227.46118	721.62726	1185.88074	1215.18286	769.04840	1073.29382	1229.84509	854.25812	978.48322	1275.58777	928.53632	894.02917	1224.00464	913.26599	880.91901	1242.67834	974.22327	827.83752	1619.64819	672.05634	1351.02026	1692.96582	663.47260	1129.00684	1709.30798	675.68817	1017.40070	1715.09644	689.54028	881.16626	1683.81409	720.64545	784.51166	1725.25293	685.45953	780.83856	1717.37427	706.54010	708.51349	1332.34973	737.94867	931.42859	1570.89233	747.40466	930.24426	1390.26965	578.32123	950.70605	1539.03137	583.38428	951.80219	1311.38074	653.67358	631.01257	1357.82910	626.64642	456.31009	1364.46216	539.70282	278.37051	1414.66394	478.34384	78.65619	1451.77588	432.86053	49.06837	1433.67822	625.61639	34.96100	1623.51489	762.14050	639.37085	1584.94287	846.62256	479.62027	1589.40869	853.87830	292.34677	1546.82739	896.79620	78.37001	1491.40100	864.18970	39.72919	1532.19849	1041.22461	66.58970	1456.21521	693.14801	1670.64465												 
277	2.760	1404.79163	782.46594	1603.34070	1538.16553	779.46460	1607.06299	1405.89600	650.90143	1568.52893	1536.92896	652.88544	1571.62036	1458.65442	614.13593	1406.13306	1456.83447	580.77319	1090.46912	1461.42432	736.36700	1330.15808	1451.94482	780.52039	1166.05469	1548.48950	558.75024	1226.60059	1306.69116	696.66083	1371.32214	1228.11108	731.22192	1185.20044	1215.85925	779.00867	1072.85852	1231.04712	865.23737	979.20892	1277.39490	940.38190	895.91040	1225.96887	925.61902	882.44849	1244.82471	987.21478	830.40088	1620.21460	682.14136	1349.76099	1693.35339	672.88312	1127.72925	1709.81909	684.61761	1016.15851	1715.69385	697.38098	879.77393	1684.60669	727.74585	782.80981	1725.83740	692.49182	779.41449	1718.21472	713.01031	706.98669	1332.44763	746.53479	930.59570	1570.90002	757.18903	929.04858	1391.24780	587.00903	949.43018	1539.92444	592.78845	950.54028	1311.27515	660.16547	630.62299	1357.46423	632.39972	456.06903	1364.55884	542.99103	278.83734	1414.90637	478.97601	79.83815	1452.14197	433.14890	50.96113	1433.42554	625.60944	34.98427	1623.95728	769.40118	637.50031	1584.05981	852.60095	477.08331	1588.27966	864.44873	290.85870	1546.16772	914.74005	78.45728	1490.21338	883.47620	39.30962	1532.60535	1059.79907	69.21014	1456.79883	702.84149	1669.27124												 
278	2.770	1405.64722	792.19067	1602.54346	1539.05530	789.22943	1606.18823	1406.67529	660.67169	1567.58728	1537.79297	662.69421	1570.58630	1459.55066	623.77277	1405.25281	1457.80200	590.04132	1089.69373	1461.78711	746.00458	1329.08875	1451.95789	789.95868	1164.98242	1549.26270	568.63831	1225.60657	1307.35632	705.91266	1370.43298	1228.74683	740.71918	1184.56824	1216.62292	788.83221	1072.42529	1232.24841	875.83038	979.76282	1279.10486	951.76984	897.47870	1227.44812	937.26630	883.71356	1246.85071	999.64081	832.70496	1620.84668	692.33478	1348.69568	1693.83093	682.56140	1126.58081	1710.25806	693.67480	1014.90540	1716.15820	705.30322	878.39087	1685.30994	735.14246	781.26031	1726.48157	699.77472	778.10608	1718.95557	719.74945	705.55420	1331.70532	754.48212	929.38934	1570.84290	767.05121	928.01392	1392.19324	596.10419	948.44159	1540.81799	602.36499	949.45380	1311.17944	666.92908	630.38361	1357.07288	638.30908	455.63516	1364.60681	546.53870	279.36816	1415.09167	479.59506	81.45538	1452.36316	433.54056	52.98877	1433.49609	625.62146	34.91609	1623.79443	776.74408	635.62488	1583.37012	858.49542	474.65137	1587.56421	874.59161	289.80966	1545.53235	930.17255	78.41618	1489.20789	900.05206	39.12450	1533.09973	1075.66406	70.83003	1457.77881	712.39630	1668.61108												 
